<svg width="400" height="400" viewBox="0 0 400 400" fill="none" xmlns="http://www.w3.org/2000/svg">
<rect width="400" height="400" fill="#993AFC"/>
<path d="M16.5 200C16.5 193.133 18.0333 187 21.1 181.6C24.2333 176.133 28.4667 171.9 33.8 168.9C39.2 165.833 45.2333 164.3 51.9 164.3C59.7 164.3 66.5333 166.3 72.4 170.3C78.2667 174.3 82.3667 179.833 84.7 186.9H68.6C67 183.567 64.7333 181.067 61.8 179.4C58.9333 177.733 55.6 176.9 51.8 176.9C47.7333 176.9 44.1 177.867 40.9 179.8C37.7667 181.667 35.3 184.333 33.5 187.8C31.7667 191.267 30.9 195.333 30.9 200C30.9 204.6 31.7667 208.667 33.5 212.2C35.3 215.667 37.7667 218.367 40.9 220.3C44.1 222.167 47.7333 223.1 51.8 223.1C55.6 223.1 58.9333 222.267 61.8 220.6C64.7333 218.867 67 216.333 68.6 213H84.7C82.3667 220.133 78.2667 225.7 72.4 229.7C66.6 233.633 59.7667 235.6 51.9 235.6C45.2333 235.6 39.2 234.1 33.8 231.1C28.4667 228.033 24.2333 223.8 21.1 218.4C18.0333 213 16.5 206.867 16.5 200ZM127.858 178.8C132.058 178.8 135.791 179.733 139.058 181.6C142.324 183.4 144.858 186.1 146.658 189.7C148.524 193.233 149.458 197.5 149.458 202.5V235H135.458V204.4C135.458 200 134.358 196.633 132.158 194.3C129.958 191.9 126.958 190.7 123.158 190.7C119.291 190.7 116.224 191.9 113.958 194.3C111.758 196.633 110.658 200 110.658 204.4V235H96.6578V161H110.658V186.5C112.458 184.1 114.858 182.233 117.858 180.9C120.858 179.5 124.191 178.8 127.858 178.8ZM159.171 207.1C159.171 201.5 160.271 196.533 162.471 192.2C164.738 187.867 167.771 184.533 171.571 182.2C175.438 179.867 179.738 178.7 184.471 178.7C188.604 178.7 192.204 179.533 195.271 181.2C198.404 182.867 200.904 184.967 202.771 187.5V179.6H216.871V235H202.771V226.9C200.971 229.5 198.471 231.667 195.271 233.4C192.138 235.067 188.504 235.9 184.371 235.9C179.704 235.9 175.438 234.7 171.571 232.3C167.771 229.9 164.738 226.533 162.471 222.2C160.271 217.8 159.171 212.767 159.171 207.1ZM202.771 207.3C202.771 203.9 202.104 201 200.771 198.6C199.438 196.133 197.638 194.267 195.371 193C193.104 191.667 190.671 191 188.071 191C185.471 191 183.071 191.633 180.871 192.9C178.671 194.167 176.871 196.033 175.471 198.5C174.138 200.9 173.471 203.767 173.471 207.1C173.471 210.433 174.138 213.367 175.471 215.9C176.871 218.367 178.671 220.267 180.871 221.6C183.138 222.933 185.538 223.6 188.071 223.6C190.671 223.6 193.104 222.967 195.371 221.7C197.638 220.367 199.438 218.5 200.771 216.1C202.104 213.633 202.771 210.7 202.771 207.3ZM246.845 191.1V217.9C246.845 219.767 247.278 221.133 248.145 222C249.078 222.8 250.611 223.2 252.745 223.2H259.245V235H250.445C238.645 235 232.745 229.267 232.745 217.8V191.1H226.145V179.6H232.745V165.9H246.845V179.6H259.245V191.1H246.845ZM285.614 191.1V217.9C285.614 219.767 286.047 221.133 286.914 222C287.847 222.8 289.381 223.2 291.514 223.2H298.014V235H289.214C277.414 235 271.514 229.267 271.514 217.8V191.1H264.914V179.6H271.514V165.9H285.614V179.6H298.014V191.1H285.614ZM361.084 179.6L326.784 261.2H311.884L323.884 233.6L301.684 179.6H317.384L331.684 218.3L346.184 179.6H361.084ZM374.83 235.7C372.297 235.7 370.197 234.933 368.53 233.4C366.93 231.8 366.13 229.833 366.13 227.5C366.13 225.167 366.93 223.233 368.53 221.7C370.197 220.1 372.297 219.3 374.83 219.3C377.297 219.3 379.33 220.1 380.93 221.7C382.53 223.233 383.33 225.167 383.33 227.5C383.33 229.833 382.53 231.8 380.93 233.4C379.33 234.933 377.297 235.7 374.83 235.7Z" fill="white"/>
</svg>
